<?xml version="1.0" encoding="utf-8"?>
<!-- Generator: Adobe Illustrator 16.0.0, SVG Export Plug-In . SVG Version: 6.00 Build 0)  -->
<!DOCTYPE svg PUBLIC "-//W3C//DTD SVG 1.1//EN" "http://www.w3.org/Graphics/SVG/1.1/DTD/svg11.dtd">
<svg version="1.1" id="Layer_1" xmlns="http://www.w3.org/2000/svg" xmlns:xlink="http://www.w3.org/1999/xlink" x="0px" y="0px"
	 width="238.037px" height="277.062px" viewBox="0 0 238.037 277.062" enable-background="new 0 0 238.037 277.062"
	 xml:space="preserve">
<path d="M46.941,47.567c2.105,3.519,3.519,4.061,6.701,1.898c1.889-1.283,3.292-3.254,5.978-2.948
	c0.382,0.043,0.855-0.704,1.545-1.312c-1.038-1.421-2.05-2.811-3.347-4.586c0.537-0.215,1.396-0.855,2.236-0.833
	c1.933,0.051,2.348-0.963,2.065-2.494c-0.249-1.348-0.687-2.666-1.137-3.963c-0.1-0.289-0.673-0.668-0.905-0.6
	c-0.385,0.116-0.869,0.516-0.958,0.88c-0.189,0.781-0.153,1.617-0.223,2.632c-2.113-2.573-1.704-5.143-0.618-7.683
	c0.14-0.326,1.263-0.588,1.677-0.379c2.247,1.134,4.075,0.299,6.301-1.505c1.238-1.004,3.365-0.91,4.645-1.207
	c0.398,1.864,0.437,3.313,1.065,4.431c0.301,0.535,1.721,0.44,2.634,0.63c-0.044-0.713,0.03-1.459-0.155-2.134
	c-0.481-1.755-0.747-3.375,1.601-4.231c-1.431-0.896-3.081-1.223-0.36-2.794c3.474-2.009,7.015-3.161,10.906-3.744
	c2.037-0.306,3.956-1.71,6.09-0.282c0.157,0.105,0.714-0.319,1.046-0.553c2.27-1.599,4.712-2.308,7.555-2.277
	c1.067,0.012,1.775-0.101,2.779,0.521c0.939,0.582,2.343,0.412,3.876,0.618c1.217,4.203,4.231,0.997,5.935,0.897
	c1.38-1.443,2.384-2.493,3.469-3.628c0.866,0.57,1.583,1.042,2.597,1.708c0.093-1.029,0.119-1.738,0.228-2.436
	c0.271-1.755,0.608-3.5,0.858-5.257c0.104-0.733,0.358-1.688,0.023-2.203c-1.49-2.291-0.171-3.595,1.305-4.733
	c1.922,0.582,3.75,1.146,5.586,1.688c1.922,0.566,4.144,0.349,5.424,2.536c0.234,0.401,2.111,0.441,2.607-0.021
	c1.564-1.456,3.331-1.78,5.314-1.869c0.48-0.021,0.933-0.684,1.066-0.788c2.367,0.735,4.561,1.416,6.754,2.096
	c0.808,1.262,1.614,2.525,2.576,4.03c0.6-1.305,1.076-2.344,1.627-3.542c-1.63-0.163-2.945-0.295-4.261-0.427
	c1.501-1.243,3.001-2.485,4.104-3.397c3.039-0.312,5.738-0.591,8.437-0.869c0.071,0.319,0.142,0.64,0.212,0.958
	c-1.402,0.401-2.792,0.858-4.209,1.191c-2.072,0.487-3.389,1.675-3.527,3.835c-0.114,1.796-0.022,3.604-0.022,5.971
	c-0.737-0.814-1.063-1.173-1.521-1.678c-2.518,3.955-1.252,8.157-1.293,12.173c-0.006,0.594,1.272,1.592,2.069,1.724
	c1.784,0.296,3.364-0.093,3.308,2.864c-0.024,1.341,2.363,2.729,3.969,4.426c-1.047,1.767,0.681,2.604,2.59,3.426
	c0.888,0.382,1.906,0.803,2.477,1.517c1.672,2.091,3.666,2.294,6.071,1.354c1.021,3.158,1.409,6.854,6.125,6.599
	c0.111,2.407,0.985,3.783,3.614,4.184c1.283,0.195,2.439,1.901,3.443,3.099c1.854,2.207,4.633,1.72,6.955,2.479
	c0.994,0.325,2.568-0.416,1.528-2.287c-0.265-0.477-0.218-1.126-0.313-1.693c0.998,1.35,1.943,2.74,3.011,4.031
	c0.634,0.769,1.353,1.744,2.217,1.994c2.983,0.863,5.428,3.949,5.835,7.051c0.268,2.03,1.229,3.97,1.88,5.956
	c2.319-0.903,4.048-1.516,2.236-3.779c-0.216-0.269-0.034-0.821-0.132-1.219c-0.504-2.033-0.76-4.188-1.617-6.062
	c-2.271-4.956-6.162-8.577-10.627-11.535c-0.803-0.532-2.209-0.153-3.337-0.195c0.139,0.864,0.278,1.729,0.415,2.593
	c0.063,0.408,0.119,0.819,0.179,1.229c-2.36-1.917-4.722-3.835-7.437-6.04c2.83-0.349,5.066-0.76,7.318-0.871
	c3.652-0.179,5.96,2.077,8.335,4.537c1.949,2.02,4.499,3.458,6.78,5.152c0.077,0.083,0.167,0.17,0.268,0.259
	c0.889,2.609,1.754,5.226,2.68,7.821c0.266,0.747,0.705,1.431,1.063,2.144c0.662-0.825,1.406-1.602,1.938-2.504
	c0.177-0.298-0.204-0.916-0.312-1.392c-0.26-1.147-0.509-2.297-0.829-3.754c3.355,1.666,4.964,7.272,3.806,10.508
	c-1.65,4.616-5.233,7.368-8.815,10.257c-0.504,0.406-0.574,2.136-0.14,2.769c1.207,1.759,2.82,3.233,4.212,4.873
	c1.077,1.27,2.062,2.617,3.317,4.222c-0.104,0.157-0.533,0.818-0.771,1.187c0.945,1.874,1.775,3.588,2.684,5.261
	c0.161,0.298,0.616,0.496,0.978,0.614c2.196,0.723,2.846,2.111,2.213,4.207c-0.185,0.608,0.266,1.452,0.538,2.145
	c0.672,1.707,1.729,3.328,2.05,5.091c0.569,3.125,1.487,3.336,4.485,3.055c2.146-0.201,4.475,1.361,6.689,2.217
	c0.501,0.194,0.873,0.722,1.303,1.093c0.711-0.857,1.358-1.64,2.008-2.422c0.186,0.126,0.369,0.253,0.555,0.379
	c-0.445,1-0.793,2.06-1.354,2.99c-1.828,3.036-3.721,6.033-5.621,9.023c-0.273,0.431-0.715,1.043-1.106,1.064
	c-2.276,0.126-2.295,1.745-3.062,3.405c-1.793,3.885,0.492,5.704,2.793,7.888c2.666,2.532,3.078,8.201,2.106,11.754
	c-0.827,3.031-3.096,4.265-5.09,5.845c-2.847,2.256-2.92,5.482-3.624,8.512c-0.221,0.949-0.01,1.993-0.057,2.991
	c-0.022,0.484-0.147,1.371-0.286,1.382c-1.866,0.158-3.751,0.305-5.61,0.169c-0.376-0.027-0.837-1.204-0.961-1.903
	c-0.292-1.649,0.607-3.698-1.271-4.557c-1.08,1.542-2.045,2.882-2.973,4.248c-1.681,2.474-1.029,4.969,0.094,7.745
	c-0.651-0.133-1.295-0.472-1.59-0.278c-0.513,0.336-1.246,1.137-1.132,1.505c1.242,3.96,1.201,7.852-0.002,11.821
	c-0.235,0.778,0.371,1.811,0.601,2.769c-2.358,2.03-2.358,2.03,0.793,3.659c0.593-0.463,1.222-0.954,1.901-1.484
	c0.501,2.091,1.056,4.01,1.364,5.968c0.078,0.486-0.51,1.287-1.008,1.617c-1.228,0.812-1.301,1.441,0.031,2.121
	c1.534,0.781,1.36,1.299-0.119,2.016c-0.78,0.377-1.221,1.417-1.98,1.886c-0.667,0.412-1.566,0.445-1.686,0.476
	c-1.896,1.875-3.361,3.495-5.008,4.907c-1.735,1.49-1.677,3.758-0.944,5.033c1.758,3.063-0.032,5.349-0.913,7.828
	c-0.951,2.674-1.963,5.387-3.42,7.797c-0.785,1.299-2.44,2.327-3.926,2.867c-1.131,0.411-1.816,0.501-2.013,1.91
	c-0.159,1.146-0.95,2.22-1.518,3.297c-1.302,2.469-2.636,4.919-4.091,7.155c-0.99,0.991-2.051,1.926-2.954,2.991
	c-0.945,1.116-1.771,2.342-2.595,3.554c-1.754,2.579-3.674,5.044-3.806,8.422c-0.065,1.671-0.575,3.357-1.128,4.955
	c-0.148,0.432-1.175,0.75-1.816,0.786c-1.86,0.103-3.73,0.036-5.598,0.036c-0.033,0.22-0.066,0.439-0.1,0.66
	c0.656,0.271,1.313,0.543,2.183,0.901c-0.778,0.409-1.394,0.731-1.968,1.034c-0.75-0.504-1.412-0.948-2.525-1.696
	c0.17,1.242,0.272,1.995,0.346,2.526c-3.254,1.453-6.444,2.933-9.685,4.295c-1.104,0.464-2.235,1.434-3.555-0.003
	c-0.353-0.385-1.707,0.177-2.604,0.262c-3.652,0.342-7.482,1.497-10.91,0.77c-3.486-0.74-7.269,0.214-10.647-2.062
	c-1.222-0.822-3.914,0.245-5.812,0.843c-0.929,0.292-1.559,1.5-2.764,0.565c-0.15-0.117-0.544-0.1-0.716,0.019
	c-2.077,1.412-4.133,2.854-6.268,4.34c-2.158-1.028-1.056-2.653-0.542-4.146c-2.503-0.862-4.883-1.682-7.632-2.629
	c0.169,1.104,0.248,1.616,0.444,2.897c-2.565-1.056-4.657-1.917-6.958-2.863c0.237-1.657-0.542-2.312-2.418-2.812
	c-3.56-0.946-7.324-1.572-9.909-4.918c-1.323-1.712-3.598-2.669-5.363-4.066c-1.53-1.213-2.933-2.583-4.419-3.854
	c-1.931-1.649-4.055-3.112-5.788-4.946c-1.488-1.574-2.536-3.564-3.793-5.361c-1.076-1.536-1.987-3.245-3.296-4.552
	c-5.31-5.294-9.993-11.097-14.101-17.338c-0.717-1.089-0.329-2.879-0.554-4.329c-0.129-0.828,0.243,0.812,0,0
	c-0.655,0.436,0.67-1.405-0.119-0.882c0-1.259-1.18-2.732-1.18-4.131c0.537,0.066-1.421-2.077-0.322-1.942
	c-0.51-2.695,0,0-0.539-2.85c-0.689,0.771,0.684-2.185,0.075-1.502c0-1.583-0.197-2.778-0.197-4.131
	c0.496,0.062-0.871-1.838-0.1-1.742c-0.369-2.441-0.343-2.292-0.699-4.581c-0.024-0.153-0.141-0.414-0.223-0.417
	c-3.658-0.16-1.754-2.521-1.661-4.166c0.106-1.858-0.703-2.68-2.583-3.274c-2.835-0.897-5.475-2.415-8.464-3.792
	c3.158-3.09,6.542-1.52,9.614-2.2c0-0.905,0-1.804,0-2.712c-7.123,0.777-7.123,0.777-8.145-1.937
	c3.838-0.048,6.021-1.978,6.801-5.725c0.297-1.431,1.269-2.709,1.699-4.128c0.095-0.312-0.803-1.333-1.244-1.333
	c-3.858-0.003-7.755-0.007-10.98,2.662c-0.315,0.261-0.685,0.457-1.038,0.67c-0.056,0.032-0.153-0.003-0.459-0.02
	c-0.063-0.66,0.075-1.474-0.24-2.033c-0.619-1.102-0.156-3.345-2.605-2.77c-0.162,0.038-0.54-0.213-0.578-0.383
	c-0.299-1.318-0.444-2.679-0.825-3.97c-0.416-1.406-0.941-2.646,1.108-3.266c0.435-0.132,0.834-1.146,0.817-1.744
	c-0.012-0.42-0.689-1.042-1.184-1.192c-4.604-1.395-7.863-4.543-10.292-8.429c-0.468-0.75,0.993-2.808,1.725-4.176
	c0.64-1.197,1.506-2.271,2.21-3.309c-3.756-1.141-7.094-1.777-10.089-3.158c-3.66-1.688-6.558-4.45-8.062-8.377
	c-0.088-0.229-0.23-0.531-0.152-0.716c1.222-2.88-1.231-4.835-1.777-7.264c-0.196-0.871-0.43-1.93-0.119-2.685
	c1.614-3.915,0.562-7.714,0.02-11.634c-0.516-3.727-0.767-7.63,2.625-10.575c0.797-0.692,1.15-1.896,1.586-2.654
	c3.766-1.032,7.514-2.06,11.109-3.045c-0.176-1.604-0.486-2.96-0.437-4.302c0.094-2.598,1.25-3.677,3.799-3.589
	c1.882,0.064,3.551,0.063,3.28-3.064c1.093,2.747,1.875,4.949,2.889,7.038c0.18,0.37,1.663,0.622,1.976,0.326
	c1.573-1.486,3.203-1.778,5.345-1.44c3.925,0.618,5.761-0.609,7.777-4.146c0.527-0.924,1.566-1.556,2.481-2.426
	c-0.892-1.745-1.077-3.579,0.775-5.332c0.533-0.504,0.624-1.667,0.609-2.521c-0.035-2.039,0.664-3.013,2.806-3.645
	c1.307-0.386,2.2-2.278,3.164-3.578c0.11-0.149-0.437-0.966-0.838-1.23c-0.173-0.112-0.786,0.354-1.144,0.629
	c-1.773,1.359-3.529,2.741-5.647,3.933c1.331-2.41,2.653-4.826,4.008-7.223c0.098-0.172,0.435-0.311,0.651-0.298
	c1.91,0.106,2.474-0.979,1.862-2.503c-0.651-1.623-2.016-1.998-3.712-1.356c-2.758,1.041-5.552,1.973-7.507,4.389
	c-0.15,0.185-0.577,0.146-0.989,0.235c0.364-2.669,0.746-4.641,3.186-6.654c2.25-1.857,5.024-2.362,7.056-4.241L46.941,47.567z
	 M58.693,196.993c-0.692,1.197-1.24,2.145-1.957,3.384c1.436-0.185,2.193-0.28,2.951-0.377c-0.383,1.127-0.767,2.255-1.187,3.491
	c3.068,0.521,2.466,3.005,2.587,5.224c0.037,0.668,0.583,1.807,0.997,1.854c0.958,0.111,2.013-0.213,2.96-0.553
	c0.725-0.259,1.345-0.812,2.011-1.234c0.327,0.743,0.653,1.487,0.982,2.23c0.687,1.548,1.375,3.095,2.063,4.644
	c0.246-0.08,0.491-0.159,0.737-0.238c0.215-0.688,0.43-1.375,0.572-1.829c2.637,2.679,1.237,8.046,6.483,8.971
	c0.12,0.545,0.04,1.479,0.439,1.782c1.994,1.519,1.557,3.628,1.763,5.668c0.151,1.5,0.392,3.632,1.383,4.285
	c3.075,2.027,3.729,5.604,6.229,8.027c0.4-0.135,1.065-0.357,1.512-0.509c1.158,1.396,2.174,2.621,3.178,3.831
	c1.272-0.978,2.262-1.734,3.497-2.684c0.072,1.215-0.096,2.067,0.216,2.674c0.359,0.697,1.562,1.748,1.68,1.662
	c2.096-1.531,3.364,0.087,4.562,1.096c2.239-1.133,4.298-2.175,6.648-3.363c0.632,0.854,1.308,1.858,2.088,2.775
	c0.319,0.374,0.901,0.838,1.293,0.781c1.384-0.201,2.756-0.552,4.101-0.953c1.926-0.575,3.805-1.316,5.747-1.827
	c0.535-0.14,1.568,0.101,1.775,0.486c1.225,2.283,4.354,1.888,5.135,3.797c5.516-2.358,10.435-5.332,15.731-7.819
	c0.512,1.297,1.062,2.692,1.675,4.245c0.434-0.523,0.798-0.964,1.162-1.402c0.747,0.546,1.335,0.976,1.861,1.358
	c0.795-0.498,1.795-1.458,2.111-1.27c2.653,1.577,2.293-0.827,2.717-2.062c3.209,1.152,3.789,0.763,3.593-1.434
	c1.858-1.296,4.358-2.147,4.634-3.467c0.312-1.491,1.184-1.848,1.931-2.24c1.855-0.976,4.179-1.35,3.685-4.298
	c-0.033-0.197,0.146-0.595,0.298-0.636c2.226-0.597,1.623-2.405,1.596-3.864c-0.032-1.772,0.56-2.767,2.242-3.674
	c1.237-0.667,2.375-2.332,2.683-3.741c0.596-2.733,1.053-3.275,3.676-2.574c0.521-1.12,1.028-2.216,1.578-3.399
	c1.621,1.512,2.896,2.7,4.403,4.105c0.142-2.616,0.356-4.589,0.324-6.56c-0.04-2.306-0.369-4.607-0.388-6.913
	c-0.004-0.375,1.078-1.18,1.442-1.069c2.416,0.729,3.938-0.078,5.28-2.159c1.066-1.653,2.363-3.564,4.033-4.334
	c2.886-1.332,5.976-5.879,4.521-8.613c-1.201-2.258,0.315-3.307,1.023-4.795c0.24-0.506,0.842-0.843,1.074-1.351
	c2.326-5.06,2.42-10.581,3.076-15.955c0.598-4.889,0.461-9.835,0.041-14.757c-0.05-0.58,0.03-1.175-0.053-1.747
	c-0.627-4.346-1.949-8.714-1.773-13.022c0.302-7.417-1.5-14.513-2.194-21.764c-0.217-2.263-0.599-4.514-1.009-6.75
	c-0.102-0.547-0.604-1.023-0.937-1.523c-0.332-0.499-0.667-0.995-1.021-1.478c-0.393-0.534-0.697-1.305-1.229-1.533
	c-2.778-1.198-1.213-4.232-2.571-6.083c-0.25-0.34,1.182-1.912,1.918-3.039c0.177-1.003,0.445-2.65,0.768-4.287
	c0.165-0.838,0.8-1.788,0.566-2.459c-0.543-1.571-1.354-3.093-2.301-4.466c-0.834-1.208-2.765-2.12-2.867-3.282
	c-0.285-3.22-3.584-3.807-4.682-6.214c-0.521-1.143-1.475-2.11-2.322-3.078c-2.406-2.747-4.832-5.478-7.305-8.165
	c-1.395-1.514-1.751-4.136-4.57-4.208c-0.451-0.012-0.854-0.931-1.32-1.389c-1.542-1.512-3-3.134-4.693-4.456
	c-0.976-0.762-2.443-0.863-3.511-1.542c-3.907-2.483-7.935-4.406-12.736-4.383c-2,0.009-3.995-0.625-6.006-0.851
	c-0.696-0.078-1.437,0.181-2.151,0.313c-3.951,0.732-7.91,1.562-11.72-1.109c-0.213,0.175-0.5,0.614-0.835,0.653
	c-2.076,0.243-3.174,5.82-6.156,1.158c-0.056-0.087-0.313-0.06-0.479-0.062c-1.844-0.022-3.693-0.14-5.53-0.035
	c-1.869,0.106-3.375-0.317-4.621-1.825c-0.457-0.554-1.46-1.146-2.051-1.011c-2.121,0.488-4.169,1.286-6.249,1.955
	c-2.246,0.724-4.526,1.353-6.736,2.17c-2.48,0.919-5.182,1.609-7.274,3.113c-2.84,2.04-5.148,4.808-7.779,7.158
	c-0.978,0.874-2.22,1.45-3.532,2.283c-0.293,1.146-0.327,2.803-1.097,3.976c-1.811,2.762-3.974,5.293-5.792,7.656
	c-0.544-1.896-1.828-2.316-3.619-0.569c-0.915,0.893-1.43,2.528-2.461,2.901c-2.619,0.949-3.597,3.019-4.72,5.202
	c-1.74,3.382-4.033,6.252-2.645,10.761c1.533,4.978-0.872,10.008-1.852,14.961c-0.397,2.006-1.619,3.838-2.126,5.834
	c-1.057,4.156-2.103,8.337-2.748,12.569c-0.63,4.132-0.754,8.34-1.101,12.515c-0.014,0.166-0.015,0.336-0.057,0.495
	c-1.373,5.191-2.525,10.407-1.966,15.843c0.057,0.554-0.082,1.156-0.249,1.698c-0.662,2.146-2.074,4.042-0.87,6.625
	c0.494,1.06-0.241,2.851-0.76,4.175c-0.428,1.092-1.58,1.898-2.016,2.989c-0.531,1.327-0.727,2.81-0.912,4.246
	c-0.088,0.684,0.12,1.438,0.364,2.098c0.038,0.104,1.213,0.054,1.47-0.253c0.473-0.566,1.106-1.763,0.885-2.021
	c-1.515-1.765,0.115-2.724,0.785-4.574c0.519,2.627,1.347,4.665,1.208,6.634c-0.203,2.887-0.361,5.548,1.825,7.811
	c0.212,0.221,0.093,0.768,0.116,1.163c0.042,0.713,0.005,1.439,0.125,2.139c0.328,1.911,0.91,3.801,1.033,5.722
	c0.125,1.947,0.064,3.638,2.457,2.266C56.663,194.687,57.69,195.853,58.693,196.993z M11.218,120.417
	c0-0.317-0.128-1.166,0.036-1.954c0.166-0.796,0.62-1.532,0.918-2.226c-1.15-0.23-1.973-0.385-2.791-0.562
	c-2.843-0.616-4.406,0.509-4.28,3.419c0.109,2.5,0.673,4.976,0.903,7.476c0.376,4.093,3.503,6.298,6.227,8.522
	c1.129,0.923,3.46,0.415,5.246,0.429c0.169,0.001,0.376-0.906,0.513-1.407c0.331-1.218,0.413-2.564,1.004-3.633
	c0.582-1.052,1.815-1.729,2.481-2.753c0.438-0.672,0.619-1.721,0.452-2.502c-0.113-0.533-0.964-1.038-1.592-1.307
	c-1.797-0.77-3.649-1.41-5.479-2.105C13.797,121.412,12.74,121.002,11.218,120.417z M219.953,143.059
	c-0.694,1.285-1.697,3.003-2.535,4.799c-0.205,0.44-0.028,1.529,0.249,1.645c1.504,0.618,2.898,1.97,4.788,0.529
	c0.979-0.749,2.612-0.652,3.571-1.416c1.24-0.988,2.613-2.309,3.021-3.743c0.929-3.267-2.532-5.087-3.263-7.904
	c-0.039-0.15-0.871-0.116-1.335-0.131c-0.927-0.031-1.9-0.228-2.771-0.012c-1.672,0.413-3.329,0.966-4.888,1.689
	c-0.372,0.173-0.667,1.579-0.408,1.846C217.276,141.285,218.433,141.956,219.953,143.059z M36.741,156.901
	c-1.387,0.771-3.939,0.766-1.855,3.489c0.157,0.205-0.319,0.846-0.415,1.302c-0.11,0.522-0.125,1.064-0.18,1.599
	c0.592-0.013,1.184-0.041,1.776-0.032c1.379,0.021,2.759,0.026,4.135,0.103c0.971,0.054,2.065,0.545,2.868,0.231
	c0.821-0.32,2.052-1.761,1.893-2.053c-0.769-1.413-1.943-2.604-3.013-3.841c-0.008-0.01-0.609,0.418-0.856,0.707
	c-0.795,0.928-1.491,1.952-2.374,2.783c-0.209,0.197-1.392-0.124-1.451-0.367C36.976,159.589,36.906,158.305,36.741,156.901z
	 M87.147,30.7c1.081,0,2.048,0.276,2.677-0.066c0.897-0.489,1.686-1.348,2.225-2.229c0.185-0.303-0.677-1.694-0.794-1.661
	c-1.031,0.296-2.135,0.639-2.943,1.302C87.761,28.498,87.648,29.485,87.147,30.7z M9.979,100.715
	c0.017-0.329,0.034-0.658,0.05-0.987c-0.8-0.327-1.734-1.074-2.366-0.873c-0.741,0.236-1.221,1.296-1.813,1.999
	c0.17,0.21,0.34,0.42,0.51,0.629C7.565,101.227,8.772,100.971,9.979,100.715z M203.603,67.883c0.109-0.477,0.221-0.953,0.33-1.429
	c-1.104-0.23-2.205-0.491-3.322-0.635c-0.09-0.012-0.281,0.784-0.428,1.204C201.323,67.31,202.462,67.596,203.603,67.883z
	 M198.22,96.549c2.521-1.692,2.502-2.22,0-3.71C198.22,94.044,198.22,95.148,198.22,96.549z"/>
<path d="M29.048,65.918c-5.79-1.653-5.913-1.745-4.481-3.886c0.287,0.879,0.52,1.596,0.836,2.564
	c3.011-1.537,5.962-3.066,8.944-4.537c0.371-0.183,0.899-0.045,1.354-0.055c-0.042,0.515,0.116,1.272-0.161,1.5
	c-0.932,0.761-2.033,1.31-3.041,1.98C31.469,64.174,30.473,64.911,29.048,65.918z"/>
<path d="M34.547,74.598c-0.84-2.431-0.576-4.956-3.578-5.126c-0.249-0.014-0.659-0.562-0.646-0.847
	c0.013-0.29,0.408-0.714,0.719-0.812c0.838-0.26,1.72-0.377,2.728-0.58c0.626,2.317,2.456,2.874,4.863,2.409
	c0.111,0.255,0.222,0.511,0.333,0.767C37.571,71.732,36.177,73.054,34.547,74.598z"/>
<path d="M208.386,52.675c-0.1-0.089-0.188-0.176-0.267-0.259c-0.37-0.893-0.743-1.787-1.168-2.81
	c1.341,0.476,2.223,0.994,3.137,1.061c1.291,0.092,2.319,0.424,1.817,1.826c-0.19,0.53-1.475,0.777-2.301,0.921
	C209.252,53.475,208.795,52.94,208.386,52.675z"/>
<path d="M33.468,179.593c-1.72,0-3.441,0.045-5.157-0.036c-0.373-0.018-0.791-0.439-1.049-0.781
	c-0.099-0.131,0.112-0.695,0.322-0.814c0.331-0.188,0.802-0.281,1.176-0.211c1.656,0.311,3.299,0.693,4.947,1.051
	C33.627,179.064,33.547,179.329,33.468,179.593z"/>
<path d="M47.013,47.631c0.726-2.195,2.577-3.036,4.543-3.675c0.361-0.117,0.905,0.091,1.255,0.317
	c0.112,0.073-0.021,0.931-0.221,1.019c-1.858,0.811-3.755,1.532-5.645,2.276C46.941,47.567,47.013,47.631,47.013,47.631z"/>
<path fill="none" d="M58.693,196.993c-1.003-1.141-2.031-2.307-3.236-3.675c-2.392,1.372-2.332-0.318-2.457-2.266
	c-0.123-1.921-0.706-3.81-1.033-5.722c-0.12-0.699-0.083-1.425-0.125-2.139c-0.023-0.396,0.097-0.942-0.116-1.162
	c-2.187-2.264-2.028-4.925-1.825-7.812c0.139-1.969-0.69-4.007-1.208-6.634c-0.669,1.851-2.299,2.81-0.785,4.575
	c0.221,0.258-0.412,1.455-0.885,2.021c-0.257,0.307-1.433,0.356-1.47,0.253c-0.244-0.66-0.452-1.415-0.364-2.098
	c0.185-1.437,0.38-2.918,0.912-4.246c0.437-1.091,1.588-1.897,2.016-2.989c0.519-1.325,1.254-3.116,0.76-4.175
	c-1.205-2.582,0.208-4.479,0.87-6.625c0.167-0.542,0.306-1.145,0.249-1.698c-0.56-5.436,0.593-10.65,1.966-15.843
	c0.042-0.159,0.043-0.329,0.057-0.495c0.347-4.175,0.471-8.383,1.101-12.515c0.645-4.232,1.691-8.413,2.748-12.569
	c0.507-1.997,1.729-3.828,2.126-5.834c0.98-4.953,3.385-9.982,1.852-14.961c-1.388-4.508,0.905-7.378,2.645-10.761
	c1.124-2.184,2.102-4.253,4.72-5.202c1.031-0.374,1.546-2.009,2.461-2.901c1.791-1.747,3.075-1.326,3.619,0.569
	c1.819-2.363,3.981-4.896,5.792-7.656c0.77-1.173,0.803-2.83,1.097-3.976c1.312-0.833,2.555-1.409,3.532-2.283
	c2.631-2.35,4.939-5.118,7.779-7.158c2.092-1.503,4.794-2.193,7.274-3.113c2.21-0.817,4.49-1.447,6.736-2.17
	c2.08-0.669,4.128-1.467,6.249-1.955c0.591-0.136,1.594,0.457,2.051,1.011c1.246,1.508,2.752,1.933,4.621,1.826
	c1.837-0.105,3.687,0.012,5.53,0.034c0.165,0.002,0.423-0.025,0.479,0.062c2.982,4.663,4.08-0.915,6.156-1.158
	c0.334-0.039,0.622-0.478,0.835-0.653c3.812,2.673,7.769,1.844,11.72,1.109c0.715-0.133,1.455-0.391,2.151-0.313
	c2.011,0.226,4.006,0.859,6.006,0.851c4.802-0.022,8.829,1.899,12.736,4.383c1.067,0.679,2.536,0.78,3.511,1.542
	c1.692,1.321,3.151,2.943,4.693,4.456c0.466,0.458,0.869,1.377,1.32,1.389c2.819,0.071,3.176,2.693,4.57,4.208
	c2.473,2.688,4.898,5.417,7.305,8.165c0.848,0.969,1.801,1.936,2.322,3.078c1.1,2.408,4.396,2.994,4.682,6.214
	c0.103,1.162,2.033,2.074,2.867,3.282c0.946,1.374,1.758,2.896,2.301,4.466c0.233,0.672-0.401,1.622-0.566,2.459
	c-0.322,1.637-0.591,3.283-0.768,4.287c-0.736,1.127-2.166,2.699-1.918,3.039c1.357,1.852-0.207,4.885,2.571,6.083
	c0.532,0.229,0.837,0.999,1.229,1.533c0.354,0.481,0.689,0.979,1.021,1.478c0.331,0.5,0.835,0.977,0.937,1.523
	c0.41,2.237,0.791,4.487,1.009,6.75c0.694,7.251,2.496,14.348,2.194,21.764c-0.176,4.31,1.146,8.678,1.773,13.022
	c0.083,0.573,0.003,1.167,0.053,1.747c0.42,4.921,0.557,9.869-0.041,14.757c-0.656,5.374-0.75,10.896-3.076,15.955
	c-0.232,0.507-0.834,0.844-1.074,1.351c-0.708,1.488-2.225,2.537-1.023,4.795c1.454,2.734-1.636,7.281-4.521,8.613
	c-1.67,0.771-2.967,2.681-4.033,4.334c-1.344,2.082-2.865,2.888-5.28,2.159c-0.364-0.11-1.446,0.695-1.442,1.07
	c0.019,2.305,0.349,4.606,0.388,6.912c0.034,1.971-0.183,3.943-0.324,6.56c-1.508-1.405-2.782-2.593-4.403-4.105
	c-0.55,1.184-1.059,2.28-1.578,3.399c-2.623-0.701-3.08-0.16-3.676,2.574c-0.309,1.41-1.445,3.073-2.683,3.742
	c-1.683,0.907-2.274,1.9-2.242,3.673c0.026,1.459,0.63,3.269-1.596,3.864c-0.151,0.041-0.331,0.438-0.298,0.636
	c0.494,2.948-1.829,3.322-3.685,4.298c-0.747,0.394-1.618,0.749-1.931,2.241c-0.276,1.317-2.775,2.17-4.635,3.466
	c0.197,2.196-0.383,2.586-3.592,1.434c-0.425,1.235-0.063,3.642-2.717,2.062c-0.316-0.188-1.316,0.771-2.111,1.27
	c-0.526-0.384-1.115-0.812-1.861-1.357c-0.364,0.438-0.729,0.878-1.162,1.401c-0.613-1.553-1.163-2.948-1.675-4.245
	c-5.298,2.487-10.216,5.461-15.732,7.819c-0.78-1.909-3.909-1.514-5.134-3.797c-0.207-0.387-1.242-0.626-1.775-0.486
	c-1.94,0.512-3.819,1.252-5.747,1.827c-1.344,0.401-2.716,0.752-4.101,0.953c-0.393,0.057-0.975-0.407-1.293-0.781
	c-0.78-0.917-1.456-1.922-2.088-2.774c-2.35,1.188-4.409,2.229-6.648,3.362c-1.198-1.009-2.466-2.627-4.562-1.096
	c-0.118,0.086-1.321-0.965-1.68-1.662c-0.312-0.604-0.144-1.459-0.216-2.674c-1.235,0.948-2.224,1.706-3.497,2.684
	c-1.004-1.21-2.02-2.436-3.178-3.831c-0.447,0.15-1.112,0.374-1.512,0.509c-2.5-2.422-3.153-6-6.229-8.027
	c-0.991-0.652-1.231-2.785-1.383-4.285c-0.207-2.04,0.231-4.148-1.763-5.668c-0.399-0.304-0.319-1.236-0.439-1.782
	c-5.246-0.925-3.846-6.292-6.483-8.971c-0.142,0.455-0.357,1.142-0.572,1.829c-0.246,0.08-0.492,0.159-0.737,0.238
	c-0.688-1.547-1.377-3.095-2.063-4.644c-0.329-0.743-0.655-1.486-0.982-2.23c-0.666,0.422-1.286,0.976-2.011,1.234
	c-0.947,0.339-2.002,0.664-2.96,0.554c-0.415-0.049-0.96-1.188-0.997-1.855c-0.122-2.218,0.48-4.702-2.587-5.224
	c0.42-1.236,0.803-2.364,1.187-3.491c-0.757,0.097-1.515,0.193-2.951,0.377C57.454,199.137,58.001,198.19,58.693,196.993z
	 M170.903,125.788c2.185,1.846,4.277,3.822,6.606,5.459c0.729,0.512,2.235,1.978,3.31-0.369c-2.904-2.522-6.103-4.438-10-5.038
	c-0.428-0.374-0.815-0.999-1.291-1.076c-1.93-0.313-3.975-0.906-5.807-0.543c-1.894,0.375-4.565-0.179-5.351,2.749
	c-0.593,2.213-0.168,5.421,1.789,6.612c2.95,1.796,5.608,1.585,7.126-0.87c0.738-1.193,0.768-2.966,0.727-4.465
	C167.952,126.041,168.599,125.065,170.903,125.788z M168.817,213.046c0.401-2.524,0.777-4.845,1.133-7.169
	c0.035-0.233-0.004-0.507-0.096-0.726c-0.963-2.274-1.866-4.578-2.937-6.803c-1.217-2.53-3.928-4.003-6.444-3.604
	c-1.246,0.197-1.969,0.542-1.584,2.282c0.58,2.623,1.808,4.651,3.609,6.568c0.859,0.914,1.484,2.356,1.591,3.612
	C164.392,210.764,165.289,212.096,168.817,213.046z M84.069,201.104c3.437,0.983,3.443,0.986,1.959,4.052
	c-0.177,0.365-0.736,0.802-0.649,0.996c0.363,0.816,0.905,1.553,1.381,2.317c0.425-0.448,0.992-0.826,1.249-1.354
	c0.832-1.715,1.275-3.691,2.392-5.173c1.038-1.375,2.711-2.295,4.171-3.321c1.735-1.222,1.58-2.97,1.415-4.699
	c-0.131-1.382-0.862-1.388-1.873-0.675c-0.777,0.549-1.581,1.232-2.466,1.426C88.023,195.461,85.329,197.225,84.069,201.104z
	 M87.17,124.315c-0.039-0.215-0.078-0.431-0.116-0.646c-0.291,0.334-0.68,0.625-0.852,1.013c-0.357,0.805-0.593,1.664-0.89,2.497
	c-0.858,2.409,0.459,6.738,2.591,7.266c1.781,0.441,3.896,0.393,5.621-0.175c0.801-0.263,1.025-2.271,1.521-3.483
	c0.183-0.446,0.657-0.955,0.554-1.305c-0.474-1.608-0.707-4.095-1.767-4.552C91.887,124.089,89.42,124.453,87.17,124.315z
	 M129.239,163.469c0.08,0.336,0.16,0.673,0.24,1.01c1.054,0.713,2.195,1.329,3.141,2.166c1.129,1.001,2.236,1.494,3.474,0.396
	c1.416-1.257,3.412-2.475,1.832-4.78c-0.778-1.136-1.53-2.927-3.606-1.649C132.666,161.629,130.935,162.521,129.239,163.469z
	 M114.823,167.132c2.663-0.509,5.734-2.492,5.043-3.454c-0.944-1.312-2.625-2.339-4.199-2.886c-1.454-0.505-3.799,2.378-3.378,4.312
	C112.467,165.926,113.939,166.465,114.823,167.132z M164.761,105.067c-5.619-1.178-8.518-0.49-10.121,2.304
	C157.005,109.669,162.008,108.608,164.761,105.067z M139.858,186.781c0.291-0.289,0.582-0.578,0.873-0.868
	c0.3-1.499,0.697-2.989,0.822-4.502c0.03-0.356-0.824-0.848-1.342-1.163c-0.271-0.166-0.934,0.022-1.005-0.135
	c-0.381-0.851-0.854-2.146-1.726-0.86c-0.568,0.84-2.271,2.009-0.607,3.617C138.04,183.998,138.875,185.465,139.858,186.781z
	 M79.804,127.29c-0.143-0.229-0.286-0.458-0.428-0.688c-2.041,1.032-4.098,2.037-6.111,3.12c-0.42,0.227-0.683,0.742-1.019,1.125
	c0.458,0.252,0.903,0.698,1.374,0.728C76.92,131.771,77.826,128.834,79.804,127.29z M153.519,190.333
	c-0.244,0.193-0.485,0.388-0.729,0.582c0.859,1.125,1.52,2.604,2.654,3.248c0.712,0.403,2.136-0.446,3.24-0.733
	c-0.049-0.162-0.099-0.325-0.147-0.487c-0.735-0.182-1.472-0.363-2.476-0.612c0.601-0.551,0.961-0.88,1.476-1.353
	C156.022,190.736,154.771,190.535,153.519,190.333z M84.844,112.393c-1.819-3.255-3.367-0.008-4.958,0
	C81.436,112.393,82.985,112.393,84.844,112.393z M113.197,188.705c0.198,0.129,0.396,0.259,0.593,0.388
	c1.601-1.086,2.837-2.341,1.817-5C114.706,185.818,113.952,187.262,113.197,188.705z M90.48,108.44
	c0.827,0.093,1.336,0.069,1.787,0.222c0.451,0.15,0.818,0.601,1.268,0.688c0.405,0.079,0.904-0.09,1.291-0.289
	c0.113-0.058,0.091-0.65-0.051-0.89C94.331,107.423,91.391,107.453,90.48,108.44z"/>
<path fill="none" d="M11.218,120.417c1.522,0.585,2.58,0.996,3.64,1.397c1.829,0.695,3.681,1.336,5.479,2.105
	c0.627,0.269,1.479,0.773,1.592,1.307c0.167,0.781-0.015,1.83-0.452,2.502c-0.666,1.024-1.899,1.702-2.481,2.753
	c-0.592,1.068-0.673,2.415-1.004,3.633c-0.136,0.501-0.344,1.408-0.513,1.407c-1.786-0.015-4.117,0.494-5.246-0.429
	c-2.724-2.225-5.851-4.43-6.227-8.521c-0.23-2.5-0.794-4.977-0.903-7.477c-0.126-2.91,1.437-4.035,4.28-3.419
	c0.818,0.177,1.641,0.331,2.791,0.562c-0.298,0.691-0.753,1.428-0.918,2.225C11.089,119.25,11.218,120.099,11.218,120.417z"/>
<path fill="none" d="M219.953,143.059c-1.521-1.103-2.677-1.772-3.57-2.697c-0.259-0.267,0.036-1.673,0.408-1.846
	c1.558-0.724,3.216-1.276,4.888-1.689c0.87-0.216,1.844-0.02,2.771,0.012c0.464,0.015,1.296-0.02,1.335,0.131
	c0.729,2.817,4.19,4.638,3.263,7.904c-0.406,1.435-1.779,2.754-3.021,3.743c-0.957,0.763-2.59,0.667-3.57,1.416
	c-1.889,1.439-3.284,0.089-4.788-0.529c-0.278-0.114-0.454-1.204-0.249-1.645C218.255,146.062,219.258,144.344,219.953,143.059z"/>
<path fill="none" d="M193.123,49.638c-0.06-0.41-0.115-0.821-0.179-1.229c-0.137-0.865-0.276-1.729-0.416-2.593
	c1.129,0.042,2.535-0.337,3.338,0.195c4.465,2.958,8.355,6.579,10.627,11.535c0.857,1.875,1.113,4.029,1.617,6.062
	c0.098,0.397-0.084,0.95,0.132,1.219c1.812,2.265,0.083,2.876-2.236,3.779c-0.651-1.986-1.612-3.926-1.88-5.956
	c-0.407-3.102-2.852-6.188-5.835-7.051c-0.864-0.25-1.583-1.226-2.217-1.994c-1.066-1.291-2.013-2.682-3.011-4.031
	C193.063,49.573,193.123,49.638,193.123,49.638z"/>
<path fill="none" d="M36.741,156.901c0.165,1.404,0.234,2.688,0.528,3.919c0.059,0.244,1.241,0.565,1.451,0.368
	c0.882-0.831,1.579-1.855,2.374-2.784c0.248-0.288,0.848-0.716,0.856-0.706c1.07,1.235,2.244,2.428,3.013,3.841
	c0.159,0.292-1.072,1.732-1.893,2.053c-0.802,0.312-1.897-0.178-2.868-0.231c-1.376-0.075-2.756-0.082-4.135-0.103
	c-0.592-0.009-1.184,0.021-1.776,0.032c0.056-0.533,0.07-1.076,0.18-1.599c0.096-0.456,0.571-1.098,0.415-1.302
	C32.802,157.666,35.354,157.672,36.741,156.901z"/>
<path fill="none" d="M87.147,30.7c0.501-1.216,0.613-2.202,1.165-2.655c0.808-0.663,1.913-1.006,2.943-1.302
	c0.117-0.034,0.979,1.357,0.794,1.66c-0.539,0.883-1.328,1.74-2.225,2.229C89.195,30.978,88.229,30.7,87.147,30.7z"/>
<path fill="none" d="M149.049,3.704c1.315,0.132,2.632,0.264,4.261,0.427c-0.551,1.197-1.027,2.237-1.627,3.542
	c-0.962-1.505-1.77-2.768-2.576-4.03C149.104,3.643,149.049,3.704,149.049,3.704z"/>
<path fill="none" d="M9.979,100.715c-1.207,0.256-2.413,0.512-3.619,0.768c-0.17-0.209-0.34-0.419-0.51-0.629
	c0.593-0.703,1.072-1.763,1.813-1.999c0.632-0.201,1.566,0.546,2.366,0.873C10.012,100.057,9.995,100.386,9.979,100.715z"/>
<path fill="none" d="M203.603,67.883c-1.141-0.287-2.279-0.573-3.42-0.86c0.146-0.42,0.338-1.215,0.428-1.204
	c1.117,0.145,2.218,0.404,3.322,0.635C203.823,66.93,203.712,67.406,203.603,67.883z"/>
<path fill="none" d="M198.22,96.549c0-1.4,0-2.504,0-3.71C200.722,94.329,200.74,94.857,198.22,96.549z"/>
<path d="M168.817,213.046c-3.528-0.951-4.428-2.283-4.728-5.836c-0.106-1.256-0.731-2.698-1.591-3.612
	c-1.803-1.917-3.029-3.946-3.609-6.567c-0.385-1.742,0.338-2.086,1.584-2.283c2.518-0.4,5.229,1.072,6.444,3.604
	c1.07,2.225,1.974,4.527,2.937,6.803c0.092,0.219,0.131,0.492,0.096,0.726C169.595,208.201,169.219,210.522,168.817,213.046z"/>
<path d="M84.069,201.104c1.259-3.88,3.954-5.644,7.579-6.434c0.886-0.193,1.689-0.876,2.466-1.426
	c1.01-0.713,1.742-0.707,1.873,0.675c0.165,1.729,0.32,3.478-1.415,4.699c-1.459,1.026-3.133,1.945-4.171,3.321
	c-1.117,1.481-1.56,3.458-2.392,5.172c-0.256,0.529-0.824,0.908-1.249,1.355c-0.476-0.765-1.018-1.501-1.381-2.317
	c-0.087-0.194,0.472-0.631,0.649-0.997C87.512,202.091,87.506,202.088,84.069,201.104z"/>
<path d="M87.17,124.315c2.25,0.139,4.716-0.226,6.663,0.614c1.06,0.457,1.292,2.943,1.767,4.552c0.103,0.35-0.372,0.858-0.554,1.305
	c-0.497,1.212-0.72,3.221-1.521,3.483c-1.726,0.566-3.84,0.616-5.621,0.175c-2.132-0.527-3.45-4.856-2.591-7.266
	c0.297-0.833,0.533-1.691,0.89-2.497c0.172-0.387,0.561-0.678,0.852-1.013C87.093,123.884,87.131,124.1,87.17,124.315z
	 M88.195,127.497c-0.067,0.311-0.135,0.623-0.202,0.934c1.081,1.069,2.161,2.137,3.242,3.206c0.542-0.76,1.518-1.524,1.513-2.28
	c-0.006-0.891-0.694-2.309-1.393-2.528C90.461,126.545,89.262,127.229,88.195,127.497z"/>
<path d="M170.881,125.803c-2.284-0.738-2.93,0.238-2.869,2.443c0.042,1.5,0.013,3.271-0.726,4.465
	c-1.518,2.455-4.176,2.666-7.126,0.87c-1.958-1.191-2.382-4.399-1.789-6.612c0.785-2.928,3.458-2.375,5.351-2.749
	c1.832-0.363,3.877,0.229,5.807,0.543c0.476,0.077,0.863,0.703,1.291,1.076L170.881,125.803z M159.074,128.739
	c1.34,1.296,2.108,2.21,3.069,2.823c0.19,0.122,1.116-0.904,1.703-1.401c-1.285-0.833,0.318-3.573-2.177-3.455
	C160.978,126.737,160.331,127.715,159.074,128.739z"/>
<path d="M129.239,163.469c1.695-0.948,3.426-1.839,5.078-2.857c2.076-1.277,2.828,0.514,3.606,1.649
	c1.58,2.306-0.416,3.523-1.832,4.78c-1.237,1.098-2.345,0.604-3.474-0.396c-0.945-0.837-2.086-1.453-3.141-2.166
	C129.399,164.142,129.319,163.805,129.239,163.469z"/>
<path d="M114.823,167.132c-0.884-0.667-2.355-1.207-2.534-2.027c-0.421-1.935,1.925-4.817,3.378-4.312
	c1.574,0.547,3.254,1.573,4.199,2.886C120.558,164.641,117.486,166.623,114.823,167.132z"/>
<path d="M164.761,105.067c-2.753,3.542-7.755,4.603-10.121,2.304C156.243,104.576,159.142,103.889,164.761,105.067z"/>
<path d="M139.858,186.781c-0.983-1.315-1.818-2.783-2.983-3.911c-1.663-1.608,0.039-2.777,0.608-3.617
	c0.871-1.284,1.344,0.01,1.725,0.86c0.07,0.157,0.734-0.031,1.005,0.135c0.517,0.315,1.372,0.807,1.343,1.163
	c-0.125,1.513-0.523,3.003-0.822,4.502C140.44,186.203,140.149,186.492,139.858,186.781z"/>
<path d="M170.819,125.84c3.897,0.602,7.096,2.516,10,5.038c-1.073,2.347-2.58,0.881-3.31,0.369
	c-2.331-1.637-4.422-3.613-6.618-5.452C170.881,125.803,170.819,125.84,170.819,125.84z"/>
<path d="M79.804,127.29c-1.978,1.545-2.883,4.481-6.184,4.284c-0.471-0.028-0.917-0.475-1.374-0.728
	c0.335-0.382,0.599-0.898,1.019-1.125c2.014-1.083,4.07-2.087,6.111-3.12C79.518,126.831,79.661,127.061,79.804,127.29z"/>
<path d="M153.519,190.333c1.252,0.201,2.506,0.401,4.02,0.646c-0.516,0.473-0.875,0.803-1.477,1.353
	c1.006,0.249,1.74,0.431,2.477,0.612c0.049,0.162,0.1,0.325,0.148,0.487c-1.105,0.287-2.529,1.137-3.242,0.733
	c-1.133-0.644-1.793-2.123-2.653-3.248C153.032,190.721,153.274,190.527,153.519,190.333z"/>
<path d="M84.844,112.393c-1.859,0-3.409,0-4.958,0C81.478,112.385,83.025,109.138,84.844,112.393z"/>
<path d="M113.197,188.705c0.754-1.443,1.509-2.888,2.411-4.612c1.02,2.659-0.216,3.914-1.817,5
	C113.593,188.964,113.395,188.834,113.197,188.705z"/>
<path d="M90.48,108.44c0.911-0.986,3.851-1.018,4.295-0.27c0.142,0.239,0.164,0.832,0.051,0.89
	c-0.387,0.199-0.886,0.368-1.291,0.289c-0.449-0.088-0.817-0.538-1.268-0.688C91.816,108.51,91.307,108.532,90.48,108.44z"/>
<path fill="none" d="M88.195,127.497c1.067-0.269,2.266-0.952,3.16-0.67c0.698,0.221,1.387,1.639,1.393,2.528
	c0.005,0.756-0.971,1.521-1.513,2.28c-1.081-1.069-2.161-2.137-3.242-3.206C88.06,128.12,88.127,127.808,88.195,127.497z"/>
<path fill="none" d="M159.074,128.739c1.256-1.023,1.903-2.002,2.596-2.033c2.496-0.118,0.892,2.622,2.177,3.455
	c-0.587,0.497-1.513,1.523-1.703,1.401C161.183,130.949,160.415,130.035,159.074,128.739z"/>
</svg>
